<?xml version="1.0" encoding="utf-8"?>
<!-- Generator: Adobe Illustrator 25.0.0, SVG Export Plug-In . SVG Version: 6.00 Build 0)  -->
<svg version="1.1" id="Layer_1" xmlns="http://www.w3.org/2000/svg" xmlns:xlink="http://www.w3.org/1999/xlink" x="0px" y="0px"
	 viewBox="0 0 100 100" style="enable-background:new 0 0 100 100;" xml:space="preserve">
<style type="text/css">
	.st0{fill:#279747;}
</style>
<g id="Layer_2_1_">
	<circle class="st0" cx="51.4" cy="83.6" r="3.3"/>
	<circle class="st0" cx="82.7" cy="83.6" r="3.3"/>
	<polygon class="st0" points="25.8,22.7 23.2,20.1 26.1,18.1 28.5,17.3 31.6,16.9 33.9,16.9 37.8,18.1 41,20.7 42.6,22.3 43.9,25.6 
		44.6,29.6 43.5,33.3 42.2,36.1 40.1,38.3 37.5,40 34.8,40.8 30.9,41.2 27.3,40.5 24.1,38.3 22.2,36.5 20.6,33 24,31.7 25.4,34.2 
		26.5,35.5 28.1,36.5 29.7,37.1 31.9,37.5 34.1,37.2 35.7,36.6 38.1,35 40.3,31.6 40.8,27.4 39.8,24.7 38,22.3 35.4,20.6 31.7,20.2 
		29.2,20.4 27.4,21.4 	"/>
</g>
<g id="Layer_1_1_">
	<g>
		<path d="M50,90.9h31.9c3.5,0,5.6-1.4,6.9-3.7c1.3-2.4,1.6-5.7,1.6-9.5V50V22.3c0-3.8-0.4-7.1-1.6-9.5c-1.2-2.3-3.3-3.7-6.9-3.7
			H18.1c-3.5,0-5.6,1.4-6.9,3.7c-1.3,2.4-1.6,5.7-1.6,9.5V50v27.7c0,3.8,0.4,7.1,1.6,9.5c1.2,2.3,3.3,3.7,6.9,3.7H50z M82.7,79.2
			c1.2,0,2.3,0.5,3.1,1.3c0.8,0.8,1.3,1.9,1.3,3.1s-0.5,2.3-1.3,3.1C85,87.5,83.9,88,82.7,88s-2.3-0.5-3.1-1.3
			c-0.8-0.8-1.3-1.9-1.3-3.1s0.5-2.3,1.3-3.1C80.4,79.7,81.5,79.2,82.7,79.2z M84.9,81.4c-0.6-0.6-1.3-0.9-2.1-0.9
			c-0.8,0-1.6,0.3-2.1,0.9s-0.9,1.3-0.9,2.1c0,0.8,0.3,1.6,0.9,2.1s1.3,0.9,2.1,0.9c0.8,0,1.6-0.3,2.1-0.9s0.9-1.3,0.9-2.1
			C85.8,82.7,85.4,82,84.9,81.4z M83.5,83.6c0-0.4,0.3-0.7,0.7-0.7c0.4,0,0.7,0.3,0.7,0.7c0,0.6-0.2,1.1-0.6,1.5s-0.9,0.6-1.5,0.6
			c-0.4,0-0.7-0.3-0.7-0.7c0-0.4,0.3-0.7,0.7-0.7c0.2,0,0.4-0.1,0.5-0.2C83.4,84,83.5,83.8,83.5,83.6L83.5,83.6z M72.3,86.6
			c0.8,0,1.6-0.3,2.1-0.9c0.6-0.5,0.9-1.3,0.9-2.1c0-0.8-0.3-1.6-0.9-2.1c-0.5-0.6-1.3-0.9-2.1-0.9c-0.8,0-1.6,0.3-2.1,0.9
			c-0.6,0.5-0.9,1.3-0.9,2.1c0,0.8,0.3,1.6,0.9,2.1C70.7,86.3,71.5,86.6,72.3,86.6z M75.4,86.7c-0.8,0.8-1.9,1.3-3.1,1.3
			s-2.3-0.5-3.1-1.3c-0.8-0.8-1.3-1.9-1.3-3.1s0.5-2.3,1.3-3.1c0.8-0.8,1.9-1.3,3.1-1.3s2.3,0.5,3.1,1.3c0.8,0.8,1.3,1.9,1.3,3.1
			C76.7,84.8,76.2,85.9,75.4,86.7z M74.4,83.6c0,0.4-0.3,0.7-0.7,0.7c-0.4,0-0.7-0.3-0.7-0.7c0-0.2-0.1-0.4-0.2-0.5
			s-0.3-0.2-0.5-0.2c-0.4,0-0.7-0.3-0.7-0.7s0.3-0.7,0.7-0.7c0.6,0,1.1,0.2,1.5,0.6C74.2,82.5,74.4,83,74.4,83.6L74.4,83.6z
			 M61.8,79.2c1.2,0,2.3,0.5,3.1,1.3s1.3,1.9,1.3,3.1s-0.5,2.3-1.3,3.1C64.1,87.5,63,88,61.8,88c-1.2,0-2.3-0.5-3.1-1.3
			s-1.3-1.9-1.3-3.1s0.5-2.3,1.3-3.1C59.5,79.7,60.6,79.2,61.8,79.2z M64,81.4c-0.5-0.5-1.3-0.9-2.1-0.9s-1.6,0.3-2.1,0.9
			s-0.9,1.3-0.9,2.1c0,0.8,0.3,1.6,0.9,2.1c0.6,0.6,1.3,0.9,2.1,0.9s1.6-0.3,2.1-0.9s0.9-1.3,0.9-2.1C64.9,82.7,64.5,82,64,81.4z
			 M62.6,83.6c0-0.4,0.3-0.7,0.7-0.7s0.7,0.3,0.7,0.7c0,0.6-0.2,1.1-0.6,1.5c-0.4,0.4-0.9,0.6-1.5,0.6c-0.4,0-0.7-0.3-0.7-0.7
			s0.3-0.7,0.7-0.7c0.2,0,0.4-0.1,0.5-0.2S62.6,83.8,62.6,83.6L62.6,83.6z M51.4,79.2c1.2,0,2.3,0.5,3.1,1.3s1.3,1.9,1.3,3.1
			s-0.5,2.3-1.3,3.1c-0.8,0.8-1.9,1.3-3.1,1.3c-1.2,0-2.3-0.5-3.1-1.3S47,84.8,47,83.6s0.5-2.3,1.3-3.1
			C49.1,79.7,50.2,79.2,51.4,79.2z M53.5,81.4c-0.5-0.6-1.3-0.9-2.1-0.9s-1.6,0.3-2.1,0.9c-0.5,0.5-0.9,1.3-0.9,2.1
			c0,0.8,0.3,1.6,0.9,2.1c0.6,0.6,1.3,0.9,2.1,0.9s1.6-0.3,2.1-0.9c0.5-0.5,0.9-1.3,0.9-2.1C54.4,82.8,54.1,82,53.5,81.4z
			 M52.2,83.6c0-0.4,0.3-0.7,0.7-0.7s0.7,0.3,0.7,0.7c0,0.6-0.2,1.1-0.6,1.5c-0.4,0.4-0.9,0.6-1.5,0.6c-0.4,0-0.7-0.3-0.7-0.7
			s0.3-0.7,0.7-0.7c0.2,0,0.4-0.1,0.5-0.2C52.1,84,52.2,83.8,52.2,83.6L52.2,83.6z M23.1,75.9c-0.3-0.2-0.4-0.6-0.2-0.9
			c0.2-0.3,0.6-0.4,0.9-0.2c0.9,0.6,1.8,1.1,2.8,1.6c1,0.4,2,0.7,3.1,0.9c0,0,0,0,0.1,0c3.9,0.7,7.7-0.3,10.7-2.4s5.2-5.4,5.9-9.2
			c0,0,0,0,0-0.1c0.7-3.9-0.3-7.7-2.4-10.7s-5.4-5.2-9.2-5.9c0,0,0,0-0.1,0c-3.9-0.7-7.7,0.3-10.7,2.4c-3,2.1-5.2,5.4-5.9,9.3
			c-0.1,0.4-0.4,0.6-0.8,0.5s-0.6-0.4-0.5-0.8c0.7-4.3,3.1-7.8,6.4-10.1c3.3-2.3,7.4-3.4,11.7-2.6l0,0c4.3,0.7,7.8,3.1,10.1,6.4
			c2.3,3.3,3.4,7.4,2.6,11.7l0,0c-0.7,4.3-3.1,7.8-6.4,10.1c-3.3,2.3-7.4,3.4-11.7,2.6l0,0c-1.2-0.2-2.3-0.5-3.4-1
			C25.1,77.2,24,76.6,23.1,75.9L23.1,75.9z M25.6,72.4c-0.3-0.2-0.4-0.6-0.2-0.9c0.2-0.3,0.6-0.4,0.9-0.2c0.6,0.4,1.3,0.8,1.9,1.1
			c0.7,0.3,1.4,0.5,2.1,0.6c0,0,0,0,0.1,0c2.7,0.5,5.3-0.2,7.4-1.7s3.6-3.7,4.1-6.4c0,0,0,0,0-0.1c0.5-2.7-0.2-5.3-1.7-7.4
			c-1.5-2.1-3.7-3.6-6.4-4.1s-5.3,0.2-7.4,1.7s-3.6,3.7-4.1,6.4c-0.1,0.4-0.4,0.6-0.8,0.5s-0.6-0.4-0.5-0.8c0.5-3.1,2.2-5.6,4.6-7.3
			s5.3-2.4,8.4-1.9s5.6,2.2,7.3,4.6c1.7,2.4,2.4,5.3,1.9,8.4l0,0c-0.5,3.1-2.2,5.6-4.6,7.3c-2.4,1.7-5.3,2.4-8.4,1.9l0,0
			c-0.9-0.1-1.7-0.4-2.4-0.7C27.1,73.3,26.3,72.9,25.6,72.4L25.6,72.4z M19.8,33.2c-0.1-0.3,0.1-0.7,0.4-0.8s0.7,0.1,0.8,0.4
			c0.3,0.8,0.7,1.6,1.1,2.3c0.5,0.7,1,1.4,1.6,2c2.3,2.3,5.2,3.4,8.2,3.4s5.9-1.1,8.2-3.4c2.3-2.3,3.4-5.2,3.4-8.2l0,0
			c0-3-1.1-5.9-3.4-8.2S35,17.3,32,17.3s-5.9,1.1-8.2,3.4c-0.3,0.3-0.7,0.3-0.9,0c-0.3-0.3-0.3-0.7,0-0.9c2.5-2.5,5.8-3.8,9.1-3.8
			s6.6,1.3,9.1,3.8s3.8,5.8,3.8,9.1l0,0c0,3.3-1.3,6.6-3.8,9.1s-5.8,3.8-9.1,3.8s-6.6-1.3-9.1-3.8c-0.7-0.7-1.3-1.5-1.8-2.3
			C20.6,35,20.1,34.1,19.8,33.2L19.8,33.2z M23.2,32c-0.1-0.3,0.1-0.7,0.4-0.8c0.3-0.1,0.7,0.1,0.8,0.4c0.2,0.6,0.5,1.1,0.8,1.6
			s0.7,1,1.1,1.4c1.6,1.6,3.6,2.3,5.7,2.3s4.1-0.8,5.7-2.3C39.3,33,40,31,40,28.9s-0.8-4.1-2.3-5.7c-1.6-1.6-3.6-2.3-5.7-2.3
			s-4.1,0.8-5.7,2.3c-0.3,0.3-0.7,0.3-0.9,0c-0.3-0.3-0.3-0.7,0-0.9c1.8-1.8,4.2-2.7,6.6-2.7s4.8,0.9,6.6,2.7s2.7,4.2,2.7,6.6
			s-0.9,4.8-2.7,6.6s-4.2,2.7-6.6,2.7s-4.8-0.9-6.6-2.7c-0.5-0.5-0.9-1.1-1.3-1.6C23.8,33.3,23.5,32.6,23.2,32L23.2,32z M63.8,71.8
			c-0.3-0.2-0.5-0.6-0.3-0.9s0.6-0.5,0.9-0.3c0.8,0.4,1.6,0.7,2.5,0.9c0.8,0.2,1.7,0.3,2.6,0.3c3.2,0,6.1-1.3,8.2-3.4s3.4-5,3.4-8.2
			s-1.3-6.1-3.4-8.2c-2.1-2.1-5-3.4-8.2-3.4s-6.1,1.3-8.2,3.4c-2.1,2.1-3.4,5-3.4,8.2c0,0.4-0.3,0.7-0.7,0.7s-0.7-0.3-0.7-0.7
			c0-3.6,1.4-6.8,3.8-9.1c2.3-2.3,5.6-3.8,9.1-3.8s6.8,1.4,9.1,3.8c2.3,2.3,3.8,5.6,3.8,9.1s-1.4,6.8-3.8,9.1
			c-2.3,2.3-5.6,3.8-9.1,3.8c-1,0-2-0.1-2.9-0.3C65.6,72.5,64.6,72.2,63.8,71.8L63.8,71.8z M65.3,68.5C65,68.4,64.9,68,65,67.7
			c0.2-0.3,0.6-0.5,0.9-0.3c0.5,0.3,1.1,0.5,1.7,0.6s1.2,0.2,1.8,0.2c2.2,0,4.2-0.9,5.7-2.3s2.3-3.4,2.3-5.7c0-2.2-0.9-4.2-2.3-5.7
			c-1.4-1.4-3.4-2.3-5.7-2.3s-4.2,0.9-5.7,2.3c-1.4,1.4-2.3,3.4-2.3,5.7c0,0.4-0.3,0.7-0.7,0.7S60,60.6,60,60.2c0-2.6,1-4.9,2.7-6.6
			c1.7-1.7,4-2.7,6.6-2.7c2.6,0,4.9,1,6.6,2.7s2.7,4,2.7,6.6s-1,4.9-2.7,6.6c-1.7,1.7-4,2.7-6.6,2.7c-0.7,0-1.4-0.1-2.1-0.2
			C66.6,69.1,66,68.9,65.3,68.5L65.3,68.5z M74.4,39.2c0.3-0.2,0.7,0,0.9,0.3c0.2,0.3,0,0.7-0.3,0.9c-0.9,0.4-1.8,0.7-2.7,1
			c-0.9,0.2-1.9,0.3-2.9,0.3c-3.6,0-6.8-1.4-9.1-3.8c-2.3-2.3-3.8-5.6-3.8-9.1s1.4-6.8,3.8-9.1c2.3-2.3,5.6-3.8,9.1-3.8
			s6.8,1.4,9.1,3.8c2.3,2.3,3.8,5.6,3.8,9.1c0,0.4-0.3,0.7-0.7,0.7s-0.7-0.3-0.7-0.7c0-3.2-1.3-6.1-3.4-8.2s-5-3.4-8.2-3.4
			s-6.1,1.3-8.2,3.4c-2.1,2.1-3.4,5-3.4,8.2s1.3,6.1,3.4,8.2c2.1,2.1,5,3.4,8.2,3.4c0.9,0,1.8-0.1,2.6-0.3
			C72.8,39.9,73.6,39.6,74.4,39.2L74.4,39.2z M72.8,36c0.3-0.2,0.7,0,0.9,0.3c0.2,0.3,0,0.7-0.3,0.9c-0.6,0.3-1.3,0.5-2,0.7
			s-1.4,0.2-2.1,0.2c-2.6,0-4.9-1-6.6-2.7s-2.7-4-2.7-6.6s1-4.9,2.7-6.6c1.7-1.7,4-2.7,6.6-2.7s4.9,1,6.6,2.7s2.7,4,2.7,6.6
			c0,0.4-0.3,0.7-0.7,0.7c-0.4,0-0.7-0.3-0.7-0.7c0-2.2-0.9-4.2-2.3-5.7s-3.4-2.3-5.7-2.3s-4.2,0.9-5.7,2.3
			c-1.4,1.4-2.3,3.4-2.3,5.7s0.9,4.2,2.3,5.7c1.4,1.4,3.4,2.3,5.7,2.3c0.6,0,1.2-0.1,1.8-0.2C71.7,36.4,72.3,36.2,72.8,36L72.8,36z
			 M81.9,92.2H18.1c-4.1,0-6.6-1.7-8-4.4c-1.4-2.6-1.8-6.2-1.8-10.1V50V22.3c0-3.9,0.4-7.5,1.8-10.1c1.5-2.7,3.9-4.4,8-4.4H82
			c4.1,0,6.6,1.7,8,4.4c1.4,2.6,1.8,6.2,1.8,10.1V50v27.7c0,3.9-0.4,7.5-1.8,10.1C88.5,90.5,86,92.2,81.9,92.2z"/>
	</g>
</g>
</svg>
