<?xml version="1.0" encoding="utf-8"?>
<!-- Generator: Adobe Illustrator 25.0.0, SVG Export Plug-In . SVG Version: 6.00 Build 0)  -->
<svg version="1.1" id="Layer_1" xmlns="http://www.w3.org/2000/svg" xmlns:xlink="http://www.w3.org/1999/xlink" x="0px" y="0px"
	 viewBox="0 0 100 100" style="enable-background:new 0 0 100 100;" xml:space="preserve">
<style type="text/css">
	.st0{fill:#279747;}
</style>
<g id="Layer_2_1_">
	<path class="st0" d="M4.9,4.9V26h31.3V4.9H4.9z M14.2,19c-1.6,0-2.8-1.3-2.8-2.8c0-1.6,1.3-2.8,2.8-2.8c1.6,0,2.8,1.3,2.8,2.8
		C17.1,17.7,15.8,19,14.2,19z"/>
	<path class="st0" d="M64.8,5.6v21.1h31.3V5.6H64.8z M85.9,18.5c-1.6,0-2.8-1.3-2.8-2.8c0-1.6,1.3-2.8,2.8-2.8
		c1.6,0,2.8,1.3,2.8,2.8C88.8,17.2,87.5,18.5,85.9,18.5z"/>
</g>
<g id="Layer_1_1_">
	<path d="M95.3,3.1H64.1H35.9H4.7c-0.9,0-1.6,0.7-1.6,1.6v21.9v68.8c0,0.9,0.7,1.6,1.6,1.6h90.6c0.9,0,1.6-0.7,1.6-1.6V26.6V4.7
		C96.9,3.8,96.2,3.1,95.3,3.1z M93.8,25H65.6V6.3h28.1V25H93.8z M62.5,6.3V25h-25V6.3H62.5z M6.2,6.3h28.1V25H6.2V6.3z M93.8,93.8
		H6.2V28.1h29.7H64h29.7v65.7H93.8z"/>
	<path d="M14.1,10.9c-2.6,0-4.7,2.1-4.7,4.7s2.1,4.7,4.7,4.7s4.7-2.1,4.7-4.7S16.6,10.9,14.1,10.9z M14.1,17.2
		c-0.9,0-1.6-0.7-1.6-1.6s0.7-1.6,1.6-1.6s1.6,0.7,1.6,1.6C15.6,16.5,14.9,17.2,14.1,17.2z"/>
	<path d="M85.9,20.3c2.6,0,4.7-2.1,4.7-4.7s-2.1-4.7-4.7-4.7s-4.7,2.1-4.7,4.7S83.4,20.3,85.9,20.3z M85.9,14.1
		c0.9,0,1.6,0.7,1.6,1.6c0,0.9-0.7,1.6-1.6,1.6s-1.6-0.7-1.6-1.6C84.4,14.8,85.1,14.1,85.9,14.1z"/>
	<rect x="21.9" y="14.1" width="3.1" height="3.1"/>
	<rect x="28.1" y="14.1" width="3.1" height="3.1"/>
	<rect x="68.8" y="14.1" width="3.1" height="3.1"/>
	<rect x="75" y="14.1" width="3.1" height="3.1"/>
	<rect x="40.6" y="17.2" width="3.1" height="3.1"/>
	<rect x="48.4" y="17.2" width="3.1" height="3.1"/>
	<rect x="56.2" y="17.2" width="3.1" height="3.1"/>
	<rect x="40.6" y="10.9" width="18.8" height="3.1"/>
	<rect x="18.8" y="62.5" width="62.5" height="3.1"/>
	<rect x="30.3" y="52.3" transform="matrix(0.7071 -0.7071 0.7071 0.7071 -28.257 39.505)" width="6.6" height="3.1"/>
	<rect x="45.9" y="52.3" transform="matrix(0.7071 -0.7071 0.7071 0.7071 -23.6984 50.5461)" width="6.6" height="3.1"/>
	<rect x="61.5" y="52.3" transform="matrix(0.7071 -0.7071 0.7071 0.7071 -19.1396 61.5872)" width="6.6" height="3.1"/>
	<rect x="30.3" y="71.1" transform="matrix(0.7071 -0.7071 0.7071 0.7071 -41.5297 45.032)" width="6.6" height="3.1"/>
	<rect x="45.9" y="71.1" transform="matrix(0.7071 -0.7071 0.7071 0.7071 -36.9711 56.0731)" width="6.6" height="3.1"/>
	<rect x="61.5" y="71.1" transform="matrix(0.7071 -0.7071 0.7071 0.7071 -32.4124 67.1141)" width="6.6" height="3.1"/>
	<path d="M12.5,34.4v7.8v42.2c0,0.9,0.7,1.6,1.6,1.6H86c0.9,0,1.6-0.7,1.6-1.6V42.2v-7.8c0-0.9-0.7-1.6-1.6-1.6H14.1
		C13.2,32.8,12.5,33.5,12.5,34.4z M84.4,82.8H15.6v-39h68.8V82.8z M15.6,35.9h68.8v4.7H15.6V35.9z"/>
</g>
</svg>
