<?xml version="1.0" encoding="utf-8"?>
<!-- Generator: Adobe Illustrator 25.0.0, SVG Export Plug-In . SVG Version: 6.00 Build 0)  -->
<svg version="1.1" id="Layer_1" xmlns="http://www.w3.org/2000/svg" xmlns:xlink="http://www.w3.org/1999/xlink" x="0px" y="0px"
	 viewBox="0 0 100 100" style="enable-background:new 0 0 100 100;" xml:space="preserve">
<style type="text/css">
	.st0{fill:#279747;}
	.st1{display:none;}
	.st2{display:inline;}
	.st3{fill:#00334E;}
	.st4{fill:none;stroke:#00334E;stroke-width:2;stroke-linejoin:round;stroke-miterlimit:10;}
</style>
<g id="Layer_2_1_">
	<rect x="20.3" y="4.8" class="st0" width="15.2" height="6.2"/>
	<rect x="10.5" y="82.8" class="st0" width="78" height="5.7"/>
</g>
<g id="Layer_1_1_">
	<g class="st1">
		<g class="st2">
			<path class="st3" d="M85.9,89.1H14.1c-1.7,0-3.1-1.4-3.1-3.1V7.8c0-1.7,1.4-3.1,3.1-3.1H86c1.7,0,3.1,1.4,3.1,3.1v78.1
				C89.1,87.7,87.7,89.1,85.9,89.1z"/>
			<path class="st3" d="M89.1,7.8c0-1.7-1.4-3.1-3.1-3.1H14.1c-1.7,0-3.1,1.4-3.1,3.1v9.4h78.1V7.8z"/>
			<path class="st3" d="M10.9,85.9c0,1.7,1.4,3.1,3.1,3.1h71.9c1.7,0,3.1-1.4,3.1-3.1v-3.1H10.9V85.9z"/>
			<path class="st3" d="M85.9,90.6H14.1c-2.6,0-4.7-2.1-4.7-4.7V7.8c0-2.6,2.1-4.7,4.7-4.7H86c2.6,0,4.7,2.1,4.7,4.7v78.1
				C90.6,88.5,88.5,90.6,85.9,90.6z M14.1,6.3c-0.9,0-1.6,0.7-1.6,1.6V86c0,0.9,0.7,1.6,1.6,1.6H86c0.9,0,1.6-0.7,1.6-1.6V7.8
				c0-0.9-0.7-1.6-1.6-1.6L14.1,6.3L14.1,6.3z"/>
			<g>
				<rect x="20.3" y="89.1" class="st3" width="6.2" height="6.2"/>
				<path class="st3" d="M26.6,96.9h-6.2c-0.9,0-1.6-0.7-1.6-1.6v-6.2c0-0.9,0.7-1.6,1.6-1.6h6.2c0.9,0,1.6,0.7,1.6,1.6v6.2
					C28.1,96.2,27.4,96.9,26.6,96.9z M21.9,93.8H25v-3.1h-3.1V93.8z"/>
			</g>
			<g>
				<rect x="73.4" y="89.1" class="st3" width="6.2" height="6.2"/>
				<path class="st3" d="M79.7,96.9h-6.2c-0.9,0-1.6-0.7-1.6-1.6v-6.2c0-0.9,0.7-1.6,1.6-1.6h6.2c0.9,0,1.6,0.7,1.6,1.6v6.2
					C81.2,96.2,80.5,96.9,79.7,96.9z M75,93.8h3.1v-3.1H75V93.8z"/>
			</g>
			<rect x="70.3" y="81.3" class="st3" width="18.8" height="3.1"/>
			<rect x="64.1" y="81.3" class="st3" width="3.1" height="3.1"/>
			<rect x="10.9" y="81.3" class="st3" width="50" height="3.1"/>
			<rect x="10.9" y="15.6" class="st3" width="78.1" height="3.1"/>
			<g>
				<rect x="20.3" y="4.7" class="st3" width="15.6" height="6.2"/>
				<path class="st3" d="M35.9,12.5H20.3c-0.9,0-1.6-0.7-1.6-1.6V4.7c0-0.9,0.7-1.6,1.6-1.6h15.6c0.9,0,1.6,0.7,1.6,1.6V11
					C37.5,11.8,36.8,12.5,35.9,12.5z M21.9,9.4h12.5V6.3H21.9V9.4z"/>
			</g>
			<rect x="17.2" y="23.4" class="st3" width="3.1" height="18.8"/>
			<g>
				<rect x="68.8" y="37.5" class="st3" width="12.5" height="12.5"/>
				<path class="st3" d="M81.2,51.6H68.8c-0.9,0-1.6-0.7-1.6-1.6V37.5c0-0.9,0.7-1.6,1.6-1.6h12.5c0.9,0,1.6,0.7,1.6,1.6V50
					C82.8,50.9,82.1,51.6,81.2,51.6z M70.3,48.4h9.4V39h-9.4V48.4z"/>
			</g>
			<g>
				<rect x="68.8" y="25" class="st3" width="12.5" height="6.2"/>
				<path class="st3" d="M81.2,32.8H68.8c-0.9,0-1.6-0.7-1.6-1.6V25c0-0.9,0.7-1.6,1.6-1.6h12.5c0.9,0,1.6,0.7,1.6,1.6v6.2
					C82.8,32.1,82.1,32.8,81.2,32.8z M70.3,29.7h9.4v-3.1h-9.4V29.7z"/>
			</g>
			<g>
				<rect x="10.9" y="76.6" class="st3" width="12.5" height="6.2"/>
				<path class="st3" d="M23.4,84.4H10.9c-0.9,0-1.6-0.7-1.6-1.6v-6.2c0-0.9,0.7-1.6,1.6-1.6h12.5c0.9,0,1.6,0.7,1.6,1.6v6.2
					C25,83.7,24.3,84.4,23.4,84.4z M12.5,81.3h9.4v-3.1h-9.4V81.3z"/>
			</g>
		</g>
	</g>
	<g class="st1">
		<g class="st2">
			<g>
				<path class="st3" d="M26.6,87.5h-6.2c-0.9,0-1.6,0.7-1.6,1.6v6.2c0,0.9,0.7,1.6,1.6,1.6h6.2c0.9,0,1.6-0.7,1.6-1.6v-6.2
					C28.1,88.2,27.4,87.5,26.6,87.5z"/>
				<path class="st3" d="M79.7,87.5h-6.2c-0.9,0-1.6,0.7-1.6,1.6v6.2c0,0.9,0.7,1.6,1.6,1.6h6.2c0.9,0,1.6-0.7,1.6-1.6v-6.2
					C81.2,88.2,80.5,87.5,79.7,87.5z"/>
			</g>
			<path class="st3" d="M85.9,3.1H14.1c-2.6,0-4.7,2.1-4.7,4.7v78.1c0,2.6,2.1,4.7,4.7,4.7H86c2.6,0,4.7-2.1,4.7-4.7V7.8
				C90.6,5.2,88.5,3.1,85.9,3.1z"/>
			<path class="st3" d="M90.6,7.8c0-2.6-2.1-4.7-4.7-4.7H14.1c-2.6,0-4.7,2.1-4.7,4.7v9.4h81.2V7.8z"/>
			<path class="st3" d="M9.4,85.9c0,2.6,2.1,4.7,4.7,4.7H86c2.6,0,4.7-2.1,4.7-4.7v-3.1H9.4V85.9z"/>
			<path class="st3" d="M20.3,3.1v4.7c0,0.9,0.7,1.6,1.6,1.6h12.5c0.9,0,1.6-0.7,1.6-1.6V3.1H20.3z"/>
			<rect x="17.2" y="26.6" class="st3" width="3.1" height="18.8"/>
			<path class="st3" d="M79.7,46.9h-9.4c-0.9,0-1.6-0.7-1.6-1.6v-9.4c0-0.9,0.7-1.6,1.6-1.6h9.4c0.9,0,1.6,0.7,1.6,1.6v9.4
				C81.2,46.2,80.5,46.9,79.7,46.9z"/>
			<path class="st3" d="M79.7,31.3h-9.4c-0.9,0-1.6-0.7-1.6-1.6v-3.1c0-0.9,0.7-1.6,1.6-1.6h9.4c0.9,0,1.6,0.7,1.6,1.6v3.1
				C81.2,30.6,80.5,31.3,79.7,31.3z"/>
		</g>
	</g>
	<g>
		<g>
			<path d="M85.9,3.1h-50H20.3h-6.2c-2.6,0-4.7,2.1-4.7,4.7v68.8v6.2v3.1c0,2.6,2.1,4.7,4.7,4.7h4.7v4.7c0,0.9,0.7,1.6,1.6,1.6h6.2
				c0.9,0,1.6-0.7,1.6-1.6v-4.7H72v4.7c0,0.9,0.7,1.6,1.6,1.6h6.2c0.9,0,1.6-0.7,1.6-1.6v-4.7h4.7c2.6,0,4.7-2.1,4.7-4.7V7.8
				C90.6,5.2,88.5,3.1,85.9,3.1z M34.4,6.3v3.1H21.9V6.3H34.4z M14.1,6.3h4.7V11c0,0.9,0.7,1.6,1.6,1.6H36c0.9,0,1.6-0.7,1.6-1.6
				V6.3H86c0.9,0,1.6,0.7,1.6,1.6v7.8h-75V7.8C12.5,7,13.2,6.3,14.1,6.3z M21.9,81.3h-9.4v-3.1h9.4V81.3z M25,93.8h-3.1v-3.1H25
				V93.8z M78.1,93.8H75v-3.1h3.1V93.8z M85.9,87.5h-6.2h-6.2H26.6h-6.2h-6.2c-0.9,0-1.6-0.7-1.6-1.6v-1.6h10.9H61v-3.1H25v-4.7
				c0-0.9-0.7-1.6-1.6-1.6H12.5V18.8h75v62.5H70.3v3.1h17.2V86C87.5,86.8,86.8,87.5,85.9,87.5z"/>
			<rect x="64.1" y="81.3" width="3.1" height="3.1"/>
			<rect x="17.2" y="23.4" width="3.1" height="18.8"/>
			<path d="M82.8,50V37.5c0-0.9-0.7-1.6-1.6-1.6H68.8c-0.9,0-1.6,0.7-1.6,1.6V50c0,0.9,0.7,1.6,1.6,1.6h12.5
				C82.1,51.6,82.8,50.9,82.8,50z M79.7,48.4h-9.4V39h9.4V48.4z"/>
			<path d="M68.8,32.8h12.5c0.9,0,1.6-0.7,1.6-1.6V25c0-0.9-0.7-1.6-1.6-1.6H68.8c-0.9,0-1.6,0.7-1.6,1.6v6.2
				C67.2,32.1,67.9,32.8,68.8,32.8z M70.3,26.6h9.4v3.1h-9.4V26.6z"/>
		</g>
	</g>
	<g class="st1">
		<g class="st2">
			<path class="st4" d="M85.9,89.1H14.1c-1.7,0-3.1-1.4-3.1-3.1V7.8c0-1.7,1.4-3.1,3.1-3.1H86c1.7,0,3.1,1.4,3.1,3.1v78.1
				C89.1,87.7,87.7,89.1,85.9,89.1z"/>
			<rect x="20.3" y="89.1" class="st4" width="6.2" height="6.2"/>
			<rect x="73.4" y="89.1" class="st4" width="6.2" height="6.2"/>
			<line class="st4" x1="70.3" y1="82.8" x2="89.1" y2="82.8"/>
			<line class="st4" x1="64.1" y1="82.8" x2="67.2" y2="82.8"/>
			<line class="st4" x1="10.9" y1="82.8" x2="60.9" y2="82.8"/>
			<line class="st4" x1="10.9" y1="17.2" x2="89.1" y2="17.2"/>
			<rect x="20.3" y="4.7" class="st4" width="15.6" height="6.2"/>
			<line class="st4" x1="18.8" y1="23.4" x2="18.8" y2="42.2"/>
			<rect x="68.8" y="37.5" class="st4" width="12.5" height="12.5"/>
			<rect x="68.8" y="25" class="st4" width="12.5" height="6.2"/>
			<rect x="10.9" y="76.6" class="st4" width="12.5" height="6.2"/>
		</g>
	</g>
</g>
</svg>
