<?xml version="1.0" encoding="utf-8"?>
<!-- Generator: Adobe Illustrator 25.0.0, SVG Export Plug-In . SVG Version: 6.00 Build 0)  -->
<svg version="1.1" id="Layer_1" xmlns="http://www.w3.org/2000/svg" xmlns:xlink="http://www.w3.org/1999/xlink" x="0px" y="0px"
	 viewBox="0 0 100 100" style="enable-background:new 0 0 100 100;" xml:space="preserve">
<style type="text/css">
	.st0{fill:#279747;}
</style>
<g id="Layer_2_1_">
	<rect x="56.1" y="10.4" class="st0" width="9.4" height="4.1"/>
	<rect x="25.8" y="41.4" class="st0" width="46.2" height="5.2"/>
</g>
<g id="Layer_1_1_">
	<g>
		<path d="M24.9,4.3v88.2h4.8v4.6h6.2v-4.6h26v4.6h6.2v-4.6h5V4.3H24.9z M33.9,95.1h-2.2v-2.3h2.2V95.1z M66.1,95.1h-2.2v-2.3h2.2
			V95.1z M26.9,42.7h44.2v3H26.9V42.7z M36.5,90.5c1.8-2.7,4.9-4.4,8.4-4.4h8.8c3.5,0,6.5,1.7,8.4,4.4H36.5z M71.1,90.5h-6.7
			c-2.1-3.8-6.1-6.4-10.7-6.4h-8.8c-4.6,0-8.7,2.6-10.7,6.4h-7.3V47.7h44.2C71.1,47.7,71.1,90.5,71.1,90.5z M26.9,40.7V6.3h44.2
			v34.4H26.9z"/>
		<path d="M32.2,13.7c-1.4,0-2.5,1.1-2.5,2.5V29c0,1.4,1.1,2.5,2.5,2.5c1.4,0,2.5-1.1,2.5-2.5V16.2C34.7,14.8,33.5,13.7,32.2,13.7z
			 M32.7,29c0,0.3-0.2,0.5-0.5,0.5s-0.5-0.2-0.5-0.5V16.2c0-0.3,0.2-0.5,0.5-0.5s0.5,0.2,0.5,0.5V29z"/>
		<path d="M32.2,68.1c1.4,0,2.5-1.1,2.5-2.5V52.8c0-1.4-1.1-2.5-2.5-2.5c-1.4,0-2.5,1.1-2.5,2.5v12.8C29.6,66.9,30.8,68.1,32.2,68.1
			z M31.6,52.8c0-0.3,0.2-0.5,0.5-0.5c0.3,0,0.5,0.2,0.5,0.5v12.8c0,0.3-0.2,0.5-0.5,0.5s-0.5-0.2-0.5-0.5
			C31.6,65.6,31.6,52.8,31.6,52.8z"/>
		<path d="M54.9,9.3v6.4h11.4V9.3H54.9z M64.2,13.7h-7.4v-2.4h7.4V13.7z"/>
		<rect x="39.9" y="20.4" transform="matrix(0.6057 -0.7957 0.7957 0.6057 1.8323 46.4751)" width="15.8" height="2"/>
		<rect x="41.7" y="28" transform="matrix(0.6056 -0.7957 0.7957 0.6056 -3.8156 50.3017)" width="14.2" height="2"/>
		<rect x="40.1" y="60.5" transform="matrix(0.641 -0.7675 0.7675 0.641 -30.0014 58.9494)" width="15.8" height="2"/>
		<rect x="41.5" y="68.2" transform="matrix(0.641 -0.7675 0.7675 0.641 -35.6615 62.1762)" width="14.2" height="2"/>
	</g>
</g>
</svg>
