<?xml version="1.0" encoding="utf-8"?>
<!-- Generator: Adobe Illustrator 25.0.0, SVG Export Plug-In . SVG Version: 6.00 Build 0)  -->
<svg version="1.1" id="Layer_1" xmlns="http://www.w3.org/2000/svg" xmlns:xlink="http://www.w3.org/1999/xlink" x="0px" y="0px"
	 viewBox="0 0 100 100" style="enable-background:new 0 0 100 100;" xml:space="preserve">
<style type="text/css">
	.st0{fill:#279747;}
</style>
<g id="Layer_2_1_">
	<rect x="39.1" y="1.7" class="st0" width="20.3" height="11.3"/>
	<rect x="19.1" y="39.1" class="st0" width="60.5" height="9.1"/>
</g>
<g id="Layer_1_1_">
	<desc>Created with Sketch.</desc>
	<g>
		<g>
			<path d="M40.6,3.1v7.8h17.2V3.1H40.6z M59.4,0C60.3,0,61,0.7,61,1.6v10.9c0,0.9-0.7,1.6-1.6,1.6H39.1c-0.9,0-1.6-0.7-1.6-1.6V1.6
				c0-0.9,0.7-1.6,1.6-1.6H59.4z M28.6,23.4h42.1l0,0c0.4,0,0.8-0.3,0.8-0.8c0-0.2-0.1-0.5-0.3-0.6l-4-3l0,0
				c-0.3-0.2-0.6-0.3-0.9-0.3H33.5l0,0c-0.3,0-0.6,0.1-0.9,0.3l-4.5,3l0,0c-0.4,0.2-0.5,0.7-0.2,1.1C28.1,23.3,28.3,23.4,28.6,23.4z
				 M66.5,15.6c0.3,0,0.7,0.1,1,0.3l10.1,7.8c0.7,0.5,0.8,1.5,0.3,2.2c-0.3,0.4-0.8,0.6-1.2,0.6H21.9c-0.9,0-1.6-0.7-1.6-1.6
				c0-0.5,0.2-1,0.7-1.3l11.2-7.8c0.3-0.2,0.6-0.3,0.9-0.3L66.5,15.6L66.5,15.6z"/>
			<path d="M20.3,46.9h57.8v-6.2H20.3V46.9z M18.8,37.5h60.9c0.9,0,1.6,0.7,1.6,1.6v9.4c0,0.9-0.7,1.6-1.6,1.6H18.8
				c-0.9,0-1.6-0.7-1.6-1.6v-9.4C17.2,38.2,17.9,37.5,18.8,37.5z M20.3,54.7v37.5h57.8V54.7H20.3z M18.8,51.6h60.9
				c0.9,0,1.6,0.7,1.6,1.6v40.6c0,0.9-0.7,1.6-1.6,1.6H18.8c-0.9,0-1.6-0.7-1.6-1.6V53.1C17.2,52.3,17.9,51.6,18.8,51.6z M21.9,100
				c0,0,0.5,0,1.6,0H21.9z M76.6,100c0,0-0.5,0-1.6,0H76.6z M21.9,96.9h54.7c0.9,0,1.6,0.3,1.6,0.8v1.6c0,0.4-0.7,0.8-1.6,0.8H21.9
				c-0.9,0-1.6-0.3-1.6-0.8v-1.6C20.3,97.2,21,96.9,21.9,96.9z M25,60.9h48.4V64H25V60.9z M28.1,42.2h3.1v3.1h-3.1V42.2z M35.9,42.2
				H39v3.1h-3.1V42.2z M43.8,42.2h3.1v3.1h-3.1V42.2z M51.6,42.2h3.1v3.1h-3.1V42.2z M59.4,42.2h3.1v3.1h-3.1V42.2z M67.2,42.2h3.1
				v3.1h-3.1V42.2z"/>
		</g>
	</g>
</g>
</svg>
