<?xml version="1.0" encoding="utf-8"?>
<!-- Generator: Adobe Illustrator 25.0.0, SVG Export Plug-In . SVG Version: 6.00 Build 0)  -->
<svg version="1.1" id="Layer_1" xmlns="http://www.w3.org/2000/svg" xmlns:xlink="http://www.w3.org/1999/xlink" x="0px" y="0px"
	 viewBox="0 0 100 100" style="enable-background:new 0 0 100 100;" xml:space="preserve">
<style type="text/css">
	.st0{fill:#279747;}
</style>
<g id="Layer_2_1_">
	<circle class="st0" cx="26.6" cy="73.4" r="8.6"/>
	<circle class="st0" cx="73.4" cy="26.6" r="8.6"/>
</g>
<g id="Layer_1_1_">
	<path d="M98.4,100H1.6C0.7,100,0,99.3,0,98.4V1.6C0,0.7,0.7,0,1.6,0h96.9c0.9,0,1.6,0.7,1.6,1.6v96.9C100,99.3,99.3,100,98.4,100z
		 M3.1,96.9h93.8V3.1H3.1V96.9z"/>
	<path d="M26.6,37.5c-6,0-10.9-4.9-10.9-10.9s4.9-10.9,10.9-10.9s10.9,4.9,10.9,10.9S32.6,37.5,26.6,37.5z M26.6,18.8
		c-4.3,0-7.8,3.5-7.8,7.8s3.5,7.8,7.8,7.8s7.8-3.5,7.8-7.8S30.9,18.8,26.6,18.8z"/>
	<path d="M73.4,37.5c-6,0-10.9-4.9-10.9-10.9s4.9-10.9,10.9-10.9s10.9,4.9,10.9,10.9S79.5,37.5,73.4,37.5z M73.4,18.8
		c-4.3,0-7.8,3.5-7.8,7.8s3.5,7.8,7.8,7.8s7.8-3.5,7.8-7.8S77.8,18.8,73.4,18.8z"/>
	<path d="M26.6,84.4c-6,0-10.9-4.9-10.9-10.9s4.9-10.9,10.9-10.9s10.9,4.9,10.9,10.9l0,0C37.5,79.5,32.6,84.4,26.6,84.4z M26.6,65.6
		c-4.3,0-7.8,3.5-7.8,7.8s3.5,7.8,7.8,7.8s7.8-3.5,7.8-7.8S30.9,65.6,26.6,65.6z"/>
	<path d="M73.4,87.5c-7.8,0-14.1-6.3-14.1-14.1s6.3-14.1,14.1-14.1s14.1,6.3,14.1,14.1l0,0C87.5,81.2,81.2,87.5,73.4,87.5z
		 M73.4,62.5c-6,0-10.9,4.9-10.9,10.9s4.9,10.9,10.9,10.9s10.9-4.9,10.9-10.9C84.4,67.4,79.5,62.5,73.4,62.5L73.4,62.5z"/>
	<path d="M26.6,21.9c-0.9,0-1.6-0.7-1.6-1.6v-6.2c0-0.9,0.7-1.6,1.6-1.6s1.6,0.7,1.6,1.6v6.2C28.1,21.2,27.4,21.9,26.6,21.9z"/>
	<path d="M26.6,68.8c-0.9,0-1.6-0.7-1.6-1.6V61c0-0.9,0.7-1.6,1.6-1.6s1.6,0.7,1.6,1.6v6.2C28.1,68.1,27.4,68.8,26.6,68.8z"/>
	<path d="M26.6,40.6c-0.9,0-1.6-0.7-1.6-1.6v-6.2c0-0.9,0.7-1.6,1.6-1.6s1.6,0.7,1.6,1.6V39C28.1,39.9,27.4,40.6,26.6,40.6z"/>
	<path d="M26.6,87.5c-0.9,0-1.6-0.7-1.6-1.6v-6.2c0-0.9,0.7-1.6,1.6-1.6s1.6,0.7,1.6,1.6v6.2C28.1,86.8,27.4,87.5,26.6,87.5z"/>
	<path d="M73.4,21.9c-0.9,0-1.6-0.7-1.6-1.6v-6.2c0-0.9,0.7-1.6,1.6-1.6s1.6,0.7,1.6,1.6v6.2C75,21.2,74.3,21.9,73.4,21.9z"/>
	<path d="M73.4,68.8c-0.9,0-1.6-0.7-1.6-1.6v-9.4c0-0.9,0.7-1.6,1.6-1.6s1.6,0.7,1.6,1.6v9.4C75,68.1,74.3,68.8,73.4,68.8z"/>
	<path d="M73.4,40.6c-0.9,0-1.6-0.7-1.6-1.6v-6.2c0-0.9,0.7-1.6,1.6-1.6s1.6,0.7,1.6,1.6V39C75,39.9,74.3,40.6,73.4,40.6z"/>
	<path d="M73.4,90.6c-0.9,0-1.6-0.7-1.6-1.6v-9.4c0-0.9,0.7-1.6,1.6-1.6s1.6,0.7,1.6,1.6V89C75,89.9,74.3,90.6,73.4,90.6z"/>
	<path d="M85.9,28.1h-6.2c-0.9,0-1.6-0.7-1.6-1.6s0.7-1.6,1.6-1.6h6.2c0.9,0,1.6,0.7,1.6,1.6S86.8,28.1,85.9,28.1z"/>
	<path d="M39.1,28.1h-6.2c-0.9,0-1.6-0.7-1.6-1.6s0.7-1.6,1.6-1.6h6.2c0.9,0,1.6,0.7,1.6,1.6S39.9,28.1,39.1,28.1z"/>
	<path d="M67.2,28.1H61c-0.9,0-1.6-0.7-1.6-1.6s0.7-1.6,1.6-1.6h6.2c0.9,0,1.6,0.7,1.6,1.6S68.1,28.1,67.2,28.1z"/>
	<path d="M20.3,28.1h-6.2c-0.9,0-1.6-0.7-1.6-1.6s0.7-1.6,1.6-1.6h6.2c0.9,0,1.6,0.7,1.6,1.6S21.2,28.1,20.3,28.1z"/>
	<path d="M89.1,75h-9.4c-0.9,0-1.6-0.7-1.6-1.6s0.7-1.6,1.6-1.6h9.4c0.9,0,1.6,0.7,1.6,1.6S89.9,75,89.1,75z"/>
	<path d="M39.1,75h-6.2c-0.9,0-1.6-0.7-1.6-1.6s0.7-1.6,1.6-1.6h6.2c0.9,0,1.6,0.7,1.6,1.6S39.9,75,39.1,75z"/>
	<path d="M67.2,75h-9.4c-0.9,0-1.6-0.7-1.6-1.6s0.7-1.6,1.6-1.6h9.4c0.9,0,1.6,0.7,1.6,1.6S68.1,75,67.2,75z"/>
	<path d="M20.3,75h-6.2c-0.9,0-1.6-0.7-1.6-1.6s0.7-1.6,1.6-1.6h6.2c0.9,0,1.6,0.7,1.6,1.6S21.2,75,20.3,75z"/>
</g>
</svg>
