<?xml version="1.0" encoding="utf-8"?>
<!-- Generator: Adobe Illustrator 25.0.0, SVG Export Plug-In . SVG Version: 6.00 Build 0)  -->
<svg version="1.1" id="Layer_1" xmlns="http://www.w3.org/2000/svg" xmlns:xlink="http://www.w3.org/1999/xlink" x="0px" y="0px"
	 viewBox="0 0 100 100" style="enable-background:new 0 0 100 100;" xml:space="preserve">
<style type="text/css">
	.st0{fill:#279747;}
</style>
<g id="Layer_2_1_">
	<rect x="12.4" y="14.2" class="st0" width="76.2" height="9.5"/>
</g>
<g id="Layer_1_1_">
	<desc>Created with Sketch.</desc>
	<g>
		<g>
			<path d="M14.1,15.6v6.2h73.4v-6.2C87.5,15.6,14.1,15.6,14.1,15.6z M12.5,12.5h76.6c0.9,0,1.6,0.7,1.6,1.6v9.4
				c0,0.9-0.7,1.6-1.6,1.6H12.5c-0.9,0-1.6-0.7-1.6-1.6v-9.4C10.9,13.2,11.6,12.5,12.5,12.5z M14.1,31.3v56.2l0,0
				c0,0.9,0.7,1.6,1.6,1.6H86l0,0c0.9,0,1.6-0.7,1.6-1.6V31.3l0,0c0-0.9-0.7-1.6-1.6-1.6H15.6l0,0C14.8,29.7,14.1,30.4,14.1,31.3z
				 M12.5,26.6h76.6c0.9,0,1.6,0.7,1.6,1.6v62.5c0,0.9-0.7,1.6-1.6,1.6H12.5c-0.9,0-1.6-0.7-1.6-1.6V28.1
				C10.9,27.3,11.6,26.6,12.5,26.6z M15.6,93.8h70.3c0.9,0,1.6,0.7,1.6,1.6V97c0,0.9-0.7,1.6-1.6,1.6H15.6c-0.9,0-1.6-0.7-1.6-1.6
				v-1.6C14.1,94.4,14.8,93.8,15.6,93.8z M21.9,46.9v31.2l0,0c0,0.9,0.7,1.6,1.6,1.6h54.7l0,0c0.9,0,1.6-0.7,1.6-1.6V46.9l0,0
				c0-0.9-0.7-1.6-1.6-1.6H23.4l0,0C22.6,45.3,21.9,46,21.9,46.9z M21.9,42.2h57.8c1.7,0,3.1,1.4,3.1,3.1v34.4l0,0
				c0,1.7-1.4,3.1-3.1,3.1H21.9c-1.7,0-3.1-1.4-3.1-3.1V45.3C18.8,43.6,20.1,42.2,21.9,42.2z M29.7,17.2h3.1v3.1h-3.1
				C29.7,20.3,29.7,17.2,29.7,17.2z M37.5,17.2h3.1v3.1h-3.1V17.2z M45.3,17.2h3.1v3.1h-3.1V17.2z M53.1,17.2h3.1v3.1h-3.1V17.2z
				 M60.9,17.2H64v3.1h-3.1V17.2z M68.8,17.2h3.1v3.1h-3.1V17.2z M20.3,34.4h60.9c0.9,0,1.6,0.7,1.6,1.6s-0.7,1.6-1.6,1.6H20.3
				c-0.9,0-1.6-0.7-1.6-1.6S19.4,34.4,20.3,34.4z"/>
		</g>
	</g>
</g>
</svg>
