<?xml version="1.0" encoding="utf-8"?>
<!-- Generator: Adobe Illustrator 25.0.0, SVG Export Plug-In . SVG Version: 6.00 Build 0)  -->
<svg version="1.1" id="Layer_1" xmlns="http://www.w3.org/2000/svg" xmlns:xlink="http://www.w3.org/1999/xlink" x="0px" y="0px"
	 viewBox="0 0 100 100" style="enable-background:new 0 0 100 100;" xml:space="preserve">
<style type="text/css">
	.st0{fill:#279747;}
</style>
<g id="Layer_2_1_">
	<rect x="11.6" y="27.1" class="st0" width="58.9" height="45.9"/>
</g>
<g id="Layer_1_1_">
	<g>
		<path d="M88.4,65.4c2.6,0,4.7,2,4.7,4.7c0,2.6-2.1,4.7-4.7,4.7s-4.8-2.1-4.8-4.7S85.8,65.4,88.4,65.4z M60.4,34.2
			c0-0.9,0.8-1.5,1.6-1.5c0.9,0,1.5,0.7,1.5,1.5v31.5c0,0.9-0.7,1.6-1.5,1.6c-0.9,0-1.6-0.8-1.6-1.6V34.2z M79.9,18.5v62.9h17V18.5
			C96.8,18.5,79.9,18.5,79.9,18.5z M76.7,81.5v-63H3.2v62.9L76.7,81.5L76.7,81.5z M11.7,24.9h58.4c0.9,0,1.6,0.7,1.6,1.5v47.2
			c0,0.9-0.8,1.5-1.6,1.5H11.7c-0.9,0-1.6-0.7-1.6-1.5V26.4C10.1,25.5,10.7,24.9,11.7,24.9z M68.5,28H13.2v44h55.3V28z M85.3,37.7
			h6.3c0.9,0,1.5,0.7,1.5,1.5v6.3c0,0.9-0.7,1.6-1.5,1.6h-6.3c-0.9,0-1.6-0.8-1.6-1.6v-6.3C83.6,38.4,84.4,37.7,85.3,37.7z
			 M85.3,25.1h6.3c0.9,0,1.5,0.8,1.5,1.6V33c0,0.9-0.7,1.5-1.5,1.5h-6.3c-0.9,0-1.6-0.7-1.6-1.5v-6.3C83.6,25.9,84.4,25.1,85.3,25.1
			z M1.5,15.4h96.9c0.9,0,1.5,0.7,1.5,1.5V83c0,0.9-0.7,1.6-1.5,1.6H1.5C0.7,84.6,0,83.8,0,83V16.9C0,16.1,0.7,15.4,1.5,15.4z
			 M89.9,28.3h-3.2v3.2h3.2V28.3z M89.9,40.9h-3.2V44h3.2V40.9z M88.4,68.5c-0.9,0-1.6,0.8-1.6,1.6c0,0.9,0.7,1.5,1.6,1.5
			s1.5-0.7,1.5-1.5C89.9,69.3,89.3,68.5,88.4,68.5z"/>
	</g>
</g>
</svg>
