<?xml version="1.0" encoding="utf-8"?>
<!-- Generator: Adobe Illustrator 25.0.0, SVG Export Plug-In . SVG Version: 6.00 Build 0)  -->
<svg version="1.1" id="Layer_1" xmlns="http://www.w3.org/2000/svg" xmlns:xlink="http://www.w3.org/1999/xlink" x="0px" y="0px"
	 viewBox="0 0 100 100" style="enable-background:new 0 0 100 100;" xml:space="preserve">
<style type="text/css">
	.st0{fill:#279747;}
</style>
<g id="Layer_2_1_">
	<path class="st0" d="M17,28.6V13.8l2.8-3.4h59.3l3.1,1.9l0.6,17L75.1,28l-7.4-0.6L58.5,27L50,26.7l-6.8,0.1c0,0-6.9,0.2-7.3,0.3
		C35.4,27.3,29,28,29,28l-6.8,0.6l-3.9,0.6L17,28.6z"/>
</g>
<g id="Layer_1_1_">
	<g>
		<path d="M78.4,9H21.6c-3,0-5.4,2.4-5.4,5.4v16l1.1-0.2C38.8,27,61,27,82.5,30.2l1.1,0.2v-16C83.7,11.4,81.3,9,78.4,9z M81.7,28
			c-10.5-1.5-21.1-2.3-31.7-2.3S28.7,26.5,18.3,28V14.4c0-1.9,1.5-3.4,3.4-3.4h56.7c1.9,0,3.4,1.5,3.4,3.4L81.7,28L81.7,28z"/>
		<path d="M50,75.4c8.6,0,15.5-7,15.5-15.5s-7-15.5-15.5-15.5s-15.5,7-15.5,15.5S41.4,75.4,50,75.4z M50,46.3
			c7.5,0,13.5,6.1,13.5,13.5s-6,13.6-13.5,13.6s-13.5-6.1-13.5-13.5S42.5,46.3,50,46.3z"/>
		<path d="M17.1,31.1l-0.9,0.1v54.4c0,3,2.4,5.4,5.4,5.4h56.7c3,0,5.4-2.4,5.4-5.4V31.2l-0.8-0.1C61.2,27.8,38.8,27.8,17.1,31.1z
			 M81.7,85.6c0,1.9-1.5,3.4-3.4,3.4H21.6c-1.9,0-3.4-1.5-3.4-3.4V33c20.9-3.1,42.6-3.1,63.5,0V85.6z"/>
		<path d="M29,59.8c0,11.6,9.4,21,21,21c9.5,0,17.9-6.5,20.3-15.7c1.2-0.1,2.2-1.2,2.2-2.4v-5.8c0-1.3-0.9-2.3-2.2-2.4
			C67.9,45.4,59.5,38.8,50,38.8C38.4,38.8,29,48.2,29,59.8z M50,40.8c8.8,0,16.6,6.2,18.5,14.9l0.2,0.8H70c0.2,0,0.5,0.2,0.5,0.5
			v5.8c0,0.2-0.2,0.5-0.5,0.5h-1.3L68.5,64c-1.9,8.6-9.7,14.9-18.5,14.9c-10.5,0-19-8.5-19-19S39.5,40.8,50,40.8z"/>
	</g>
</g>
</svg>
